<svg version="1.1" xmlns="http://www.w3.org/2000/svg" height="500" width="500">
<circle cx="25.0" cy="25.0" fill="#009CA6" r="15.847" stroke="#000000" stroke-miterlimit="10" stroke-width="2"/>
<circle cx="30.389" cy="17.999" fill="#FFFFFF" r="5.049"/>
<circle cx="25.0" cy="25.0" fill="none" r="15.847" stroke="#000000" stroke-miterlimit="10" stroke-width="2"/><circle cx="75.0" cy="25.0" fill="#F39200" r="15.847" stroke="#000000" stroke-miterlimit="10" stroke-width="2"/>
<circle cx="80.389" cy="17.999" fill="#FFFFFF" r="5.049"/>
<circle cx="75.0" cy="25.0" fill="none" r="15.847" stroke="#000000" stroke-miterlimit="10" stroke-width="2"/><circle cx="125.0" cy="25.0" fill="#F39200" r="15.847" stroke="#000000" stroke-miterlimit="10" stroke-width="2"/>
<circle cx="130.389" cy="17.999" fill="#FFFFFF" r="5.049"/>
<circle cx="125.0" cy="25.0" fill="none" r="15.847" stroke="#000000" stroke-miterlimit="10" stroke-width="2"/><circle cx="175.0" cy="25.0" fill="#009CA6" r="15.847" stroke="#000000" stroke-miterlimit="10" stroke-width="2"/>
<circle cx="180.389" cy="17.999" fill="#FFFFFF" r="5.049"/>
<circle cx="175.0" cy="25.0" fill="none" r="15.847" stroke="#000000" stroke-miterlimit="10" stroke-width="2"/><circle cx="225.0" cy="25.0" fill="#F39200" r="15.847" stroke="#000000" stroke-miterlimit="10" stroke-width="2"/>
<circle cx="230.389" cy="17.999" fill="#FFFFFF" r="5.049"/>
<circle cx="225.0" cy="25.0" fill="none" r="15.847" stroke="#000000" stroke-miterlimit="10" stroke-width="2"/><circle cx="275.0" cy="25.0" fill="#009CA6" r="15.847" stroke="#000000" stroke-miterlimit="10" stroke-width="2"/>
<circle cx="280.389" cy="17.999" fill="#FFFFFF" r="5.049"/>
<circle cx="275.0" cy="25.0" fill="none" r="15.847" stroke="#000000" stroke-miterlimit="10" stroke-width="2"/><circle cx="325.0" cy="25.0" fill="#F39200" r="15.847" stroke="#000000" stroke-miterlimit="10" stroke-width="2"/>
<circle cx="330.389" cy="17.999" fill="#FFFFFF" r="5.049"/>
<circle cx="325.0" cy="25.0" fill="none" r="15.847" stroke="#000000" stroke-miterlimit="10" stroke-width="2"/><circle cx="375.0" cy="25.0" fill="#009CA6" r="15.847" stroke="#000000" stroke-miterlimit="10" stroke-width="2"/>
<circle cx="380.389" cy="17.999" fill="#FFFFFF" r="5.049"/>
<circle cx="375.0" cy="25.0" fill="none" r="15.847" stroke="#000000" stroke-miterlimit="10" stroke-width="2"/><circle cx="425.0" cy="25.0" fill="#009CA6" r="15.847" stroke="#000000" stroke-miterlimit="10" stroke-width="2"/>
<circle cx="430.389" cy="17.999" fill="#FFFFFF" r="5.049"/>
<circle cx="425.0" cy="25.0" fill="none" r="15.847" stroke="#000000" stroke-miterlimit="10" stroke-width="2"/><circle cx="475.0" cy="25.0" fill="#F39200" r="15.847" stroke="#000000" stroke-miterlimit="10" stroke-width="2"/>
<circle cx="480.389" cy="17.999" fill="#FFFFFF" r="5.049"/>
<circle cx="475.0" cy="25.0" fill="none" r="15.847" stroke="#000000" stroke-miterlimit="10" stroke-width="2"/><circle cx="25.0" cy="75.0" fill="#009CA6" r="15.847" stroke="#000000" stroke-miterlimit="10" stroke-width="2"/>
<circle cx="30.389" cy="67.999" fill="#FFFFFF" r="5.049"/>
<circle cx="25.0" cy="75.0" fill="none" r="15.847" stroke="#000000" stroke-miterlimit="10" stroke-width="2"/><circle cx="75.0" cy="75.0" fill="#F39200" r="15.847" stroke="#000000" stroke-miterlimit="10" stroke-width="2"/>
<circle cx="80.389" cy="67.999" fill="#FFFFFF" r="5.049"/>
<circle cx="75.0" cy="75.0" fill="none" r="15.847" stroke="#000000" stroke-miterlimit="10" stroke-width="2"/><circle cx="125.0" cy="75.0" fill="#F39200" r="15.847" stroke="#000000" stroke-miterlimit="10" stroke-width="2"/>
<circle cx="130.389" cy="67.999" fill="#FFFFFF" r="5.049"/>
<circle cx="125.0" cy="75.0" fill="none" r="15.847" stroke="#000000" stroke-miterlimit="10" stroke-width="2"/><circle cx="175.0" cy="75.0" fill="#F39200" r="15.847" stroke="#000000" stroke-miterlimit="10" stroke-width="2"/>
<circle cx="180.389" cy="67.999" fill="#FFFFFF" r="5.049"/>
<circle cx="175.0" cy="75.0" fill="none" r="15.847" stroke="#000000" stroke-miterlimit="10" stroke-width="2"/><circle cx="225.0" cy="75.0" fill="#F39200" r="15.847" stroke="#000000" stroke-miterlimit="10" stroke-width="2"/>
<circle cx="230.389" cy="67.999" fill="#FFFFFF" r="5.049"/>
<circle cx="225.0" cy="75.0" fill="none" r="15.847" stroke="#000000" stroke-miterlimit="10" stroke-width="2"/><circle cx="275.0" cy="75.0" fill="#F39200" r="15.847" stroke="#000000" stroke-miterlimit="10" stroke-width="2"/>
<circle cx="280.389" cy="67.999" fill="#FFFFFF" r="5.049"/>
<circle cx="275.0" cy="75.0" fill="none" r="15.847" stroke="#000000" stroke-miterlimit="10" stroke-width="2"/><circle cx="325.0" cy="75.0" fill="#009CA6" r="15.847" stroke="#000000" stroke-miterlimit="10" stroke-width="2"/>
<circle cx="330.389" cy="67.999" fill="#FFFFFF" r="5.049"/>
<circle cx="325.0" cy="75.0" fill="none" r="15.847" stroke="#000000" stroke-miterlimit="10" stroke-width="2"/><circle cx="375.0" cy="75.0" fill="#F39200" r="15.847" stroke="#000000" stroke-miterlimit="10" stroke-width="2"/>
<circle cx="380.389" cy="67.999" fill="#FFFFFF" r="5.049"/>
<circle cx="375.0" cy="75.0" fill="none" r="15.847" stroke="#000000" stroke-miterlimit="10" stroke-width="2"/><circle cx="425.0" cy="75.0" fill="#F39200" r="15.847" stroke="#000000" stroke-miterlimit="10" stroke-width="2"/>
<circle cx="430.389" cy="67.999" fill="#FFFFFF" r="5.049"/>
<circle cx="425.0" cy="75.0" fill="none" r="15.847" stroke="#000000" stroke-miterlimit="10" stroke-width="2"/><circle cx="475.0" cy="75.0" fill="#009CA6" r="15.847" stroke="#000000" stroke-miterlimit="10" stroke-width="2"/>
<circle cx="480.389" cy="67.999" fill="#FFFFFF" r="5.049"/>
<circle cx="475.0" cy="75.0" fill="none" r="15.847" stroke="#000000" stroke-miterlimit="10" stroke-width="2"/><circle cx="25.0" cy="125.0" fill="#009CA6" r="15.847" stroke="#000000" stroke-miterlimit="10" stroke-width="2"/>
<circle cx="30.389" cy="117.999" fill="#FFFFFF" r="5.049"/>
<circle cx="25.0" cy="125.0" fill="none" r="15.847" stroke="#000000" stroke-miterlimit="10" stroke-width="2"/><circle cx="75.0" cy="125.0" fill="#009CA6" r="15.847" stroke="#000000" stroke-miterlimit="10" stroke-width="2"/>
<circle cx="80.389" cy="117.999" fill="#FFFFFF" r="5.049"/>
<circle cx="75.0" cy="125.0" fill="none" r="15.847" stroke="#000000" stroke-miterlimit="10" stroke-width="2"/><circle cx="125.0" cy="125.0" fill="#009CA6" r="15.847" stroke="#000000" stroke-miterlimit="10" stroke-width="2"/>
<circle cx="130.389" cy="117.999" fill="#FFFFFF" r="5.049"/>
<circle cx="125.0" cy="125.0" fill="none" r="15.847" stroke="#000000" stroke-miterlimit="10" stroke-width="2"/><circle cx="175.0" cy="125.0" fill="#F39200" r="15.847" stroke="#000000" stroke-miterlimit="10" stroke-width="2"/>
<circle cx="180.389" cy="117.999" fill="#FFFFFF" r="5.049"/>
<circle cx="175.0" cy="125.0" fill="none" r="15.847" stroke="#000000" stroke-miterlimit="10" stroke-width="2"/><circle cx="225.0" cy="125.0" fill="#F39200" r="15.847" stroke="#000000" stroke-miterlimit="10" stroke-width="2"/>
<circle cx="230.389" cy="117.999" fill="#FFFFFF" r="5.049"/>
<circle cx="225.0" cy="125.0" fill="none" r="15.847" stroke="#000000" stroke-miterlimit="10" stroke-width="2"/><circle cx="275.0" cy="125.0" fill="#F39200" r="15.847" stroke="#000000" stroke-miterlimit="10" stroke-width="2"/>
<circle cx="280.389" cy="117.999" fill="#FFFFFF" r="5.049"/>
<circle cx="275.0" cy="125.0" fill="none" r="15.847" stroke="#000000" stroke-miterlimit="10" stroke-width="2"/><circle cx="325.0" cy="125.0" fill="#009CA6" r="15.847" stroke="#000000" stroke-miterlimit="10" stroke-width="2"/>
<circle cx="330.389" cy="117.999" fill="#FFFFFF" r="5.049"/>
<circle cx="325.0" cy="125.0" fill="none" r="15.847" stroke="#000000" stroke-miterlimit="10" stroke-width="2"/><circle cx="375.0" cy="125.0" fill="#F39200" r="15.847" stroke="#000000" stroke-miterlimit="10" stroke-width="2"/>
<circle cx="380.389" cy="117.999" fill="#FFFFFF" r="5.049"/>
<circle cx="375.0" cy="125.0" fill="none" r="15.847" stroke="#000000" stroke-miterlimit="10" stroke-width="2"/><circle cx="425.0" cy="125.0" fill="#009CA6" r="15.847" stroke="#000000" stroke-miterlimit="10" stroke-width="2"/>
<circle cx="430.389" cy="117.999" fill="#FFFFFF" r="5.049"/>
<circle cx="425.0" cy="125.0" fill="none" r="15.847" stroke="#000000" stroke-miterlimit="10" stroke-width="2"/><circle cx="475.0" cy="125.0" fill="#F39200" r="15.847" stroke="#000000" stroke-miterlimit="10" stroke-width="2"/>
<circle cx="480.389" cy="117.999" fill="#FFFFFF" r="5.049"/>
<circle cx="475.0" cy="125.0" fill="none" r="15.847" stroke="#000000" stroke-miterlimit="10" stroke-width="2"/><circle cx="25.0" cy="175.0" fill="#F39200" r="15.847" stroke="#000000" stroke-miterlimit="10" stroke-width="2"/>
<circle cx="30.389" cy="167.999" fill="#FFFFFF" r="5.049"/>
<circle cx="25.0" cy="175.0" fill="none" r="15.847" stroke="#000000" stroke-miterlimit="10" stroke-width="2"/><circle cx="75.0" cy="175.0" fill="#F39200" r="15.847" stroke="#000000" stroke-miterlimit="10" stroke-width="2"/>
<circle cx="80.389" cy="167.999" fill="#FFFFFF" r="5.049"/>
<circle cx="75.0" cy="175.0" fill="none" r="15.847" stroke="#000000" stroke-miterlimit="10" stroke-width="2"/><circle cx="125.0" cy="175.0" fill="#F39200" r="15.847" stroke="#000000" stroke-miterlimit="10" stroke-width="2"/>
<circle cx="130.389" cy="167.999" fill="#FFFFFF" r="5.049"/>
<circle cx="125.0" cy="175.0" fill="none" r="15.847" stroke="#000000" stroke-miterlimit="10" stroke-width="2"/><circle cx="175.0" cy="175.0" fill="#009CA6" r="15.847" stroke="#000000" stroke-miterlimit="10" stroke-width="2"/>
<circle cx="180.389" cy="167.999" fill="#FFFFFF" r="5.049"/>
<circle cx="175.0" cy="175.0" fill="none" r="15.847" stroke="#000000" stroke-miterlimit="10" stroke-width="2"/><circle cx="225.0" cy="175.0" fill="#009CA6" r="15.847" stroke="#000000" stroke-miterlimit="10" stroke-width="2"/>
<circle cx="230.389" cy="167.999" fill="#FFFFFF" r="5.049"/>
<circle cx="225.0" cy="175.0" fill="none" r="15.847" stroke="#000000" stroke-miterlimit="10" stroke-width="2"/><circle cx="275.0" cy="175.0" fill="#009CA6" r="15.847" stroke="#000000" stroke-miterlimit="10" stroke-width="2"/>
<circle cx="280.389" cy="167.999" fill="#FFFFFF" r="5.049"/>
<circle cx="275.0" cy="175.0" fill="none" r="15.847" stroke="#000000" stroke-miterlimit="10" stroke-width="2"/><circle cx="325.0" cy="175.0" fill="#009CA6" r="15.847" stroke="#000000" stroke-miterlimit="10" stroke-width="2"/>
<circle cx="330.389" cy="167.999" fill="#FFFFFF" r="5.049"/>
<circle cx="325.0" cy="175.0" fill="none" r="15.847" stroke="#000000" stroke-miterlimit="10" stroke-width="2"/><circle cx="375.0" cy="175.0" fill="#009CA6" r="15.847" stroke="#000000" stroke-miterlimit="10" stroke-width="2"/>
<circle cx="380.389" cy="167.999" fill="#FFFFFF" r="5.049"/>
<circle cx="375.0" cy="175.0" fill="none" r="15.847" stroke="#000000" stroke-miterlimit="10" stroke-width="2"/><circle cx="425.0" cy="175.0" fill="#F39200" r="15.847" stroke="#000000" stroke-miterlimit="10" stroke-width="2"/>
<circle cx="430.389" cy="167.999" fill="#FFFFFF" r="5.049"/>
<circle cx="425.0" cy="175.0" fill="none" r="15.847" stroke="#000000" stroke-miterlimit="10" stroke-width="2"/><circle cx="475.0" cy="175.0" fill="#F39200" r="15.847" stroke="#000000" stroke-miterlimit="10" stroke-width="2"/>
<circle cx="480.389" cy="167.999" fill="#FFFFFF" r="5.049"/>
<circle cx="475.0" cy="175.0" fill="none" r="15.847" stroke="#000000" stroke-miterlimit="10" stroke-width="2"/><circle cx="25.0" cy="225.0" fill="#009CA6" r="15.847" stroke="#000000" stroke-miterlimit="10" stroke-width="2"/>
<circle cx="30.389" cy="217.999" fill="#FFFFFF" r="5.049"/>
<circle cx="25.0" cy="225.0" fill="none" r="15.847" stroke="#000000" stroke-miterlimit="10" stroke-width="2"/><circle cx="75.0" cy="225.0" fill="#F39200" r="15.847" stroke="#000000" stroke-miterlimit="10" stroke-width="2"/>
<circle cx="80.389" cy="217.999" fill="#FFFFFF" r="5.049"/>
<circle cx="75.0" cy="225.0" fill="none" r="15.847" stroke="#000000" stroke-miterlimit="10" stroke-width="2"/><circle cx="125.0" cy="225.0" fill="#009CA6" r="15.847" stroke="#000000" stroke-miterlimit="10" stroke-width="2"/>
<circle cx="130.389" cy="217.999" fill="#FFFFFF" r="5.049"/>
<circle cx="125.0" cy="225.0" fill="none" r="15.847" stroke="#000000" stroke-miterlimit="10" stroke-width="2"/><circle cx="175.0" cy="225.0" fill="#F39200" r="15.847" stroke="#000000" stroke-miterlimit="10" stroke-width="2"/>
<circle cx="180.389" cy="217.999" fill="#FFFFFF" r="5.049"/>
<circle cx="175.0" cy="225.0" fill="none" r="15.847" stroke="#000000" stroke-miterlimit="10" stroke-width="2"/><circle cx="225.0" cy="225.0" fill="#F39200" r="15.847" stroke="#000000" stroke-miterlimit="10" stroke-width="2"/>
<circle cx="230.389" cy="217.999" fill="#FFFFFF" r="5.049"/>
<circle cx="225.0" cy="225.0" fill="none" r="15.847" stroke="#000000" stroke-miterlimit="10" stroke-width="2"/><circle cx="275.0" cy="225.0" fill="#009CA6" r="15.847" stroke="#000000" stroke-miterlimit="10" stroke-width="2"/>
<circle cx="280.389" cy="217.999" fill="#FFFFFF" r="5.049"/>
<circle cx="275.0" cy="225.0" fill="none" r="15.847" stroke="#000000" stroke-miterlimit="10" stroke-width="2"/><circle cx="325.0" cy="225.0" fill="#F39200" r="15.847" stroke="#000000" stroke-miterlimit="10" stroke-width="2"/>
<circle cx="330.389" cy="217.999" fill="#FFFFFF" r="5.049"/>
<circle cx="325.0" cy="225.0" fill="none" r="15.847" stroke="#000000" stroke-miterlimit="10" stroke-width="2"/><circle cx="375.0" cy="225.0" fill="#009CA6" r="15.847" stroke="#000000" stroke-miterlimit="10" stroke-width="2"/>
<circle cx="380.389" cy="217.999" fill="#FFFFFF" r="5.049"/>
<circle cx="375.0" cy="225.0" fill="none" r="15.847" stroke="#000000" stroke-miterlimit="10" stroke-width="2"/><circle cx="425.0" cy="225.0" fill="#009CA6" r="15.847" stroke="#000000" stroke-miterlimit="10" stroke-width="2"/>
<circle cx="430.389" cy="217.999" fill="#FFFFFF" r="5.049"/>
<circle cx="425.0" cy="225.0" fill="none" r="15.847" stroke="#000000" stroke-miterlimit="10" stroke-width="2"/><circle cx="475.0" cy="225.0" fill="#009CA6" r="15.847" stroke="#000000" stroke-miterlimit="10" stroke-width="2"/>
<circle cx="480.389" cy="217.999" fill="#FFFFFF" r="5.049"/>
<circle cx="475.0" cy="225.0" fill="none" r="15.847" stroke="#000000" stroke-miterlimit="10" stroke-width="2"/><circle cx="25.0" cy="275.0" fill="#F39200" r="15.847" stroke="#000000" stroke-miterlimit="10" stroke-width="2"/>
<circle cx="30.389" cy="267.999" fill="#FFFFFF" r="5.049"/>
<circle cx="25.0" cy="275.0" fill="none" r="15.847" stroke="#000000" stroke-miterlimit="10" stroke-width="2"/><circle cx="75.0" cy="275.0" fill="#009CA6" r="15.847" stroke="#000000" stroke-miterlimit="10" stroke-width="2"/>
<circle cx="80.389" cy="267.999" fill="#FFFFFF" r="5.049"/>
<circle cx="75.0" cy="275.0" fill="none" r="15.847" stroke="#000000" stroke-miterlimit="10" stroke-width="2"/><circle cx="125.0" cy="275.0" fill="#F39200" r="15.847" stroke="#000000" stroke-miterlimit="10" stroke-width="2"/>
<circle cx="130.389" cy="267.999" fill="#FFFFFF" r="5.049"/>
<circle cx="125.0" cy="275.0" fill="none" r="15.847" stroke="#000000" stroke-miterlimit="10" stroke-width="2"/><circle cx="175.0" cy="275.0" fill="#009CA6" r="15.847" stroke="#000000" stroke-miterlimit="10" stroke-width="2"/>
<circle cx="180.389" cy="267.999" fill="#FFFFFF" r="5.049"/>
<circle cx="175.0" cy="275.0" fill="none" r="15.847" stroke="#000000" stroke-miterlimit="10" stroke-width="2"/><circle cx="225.0" cy="275.0" fill="#009CA6" r="15.847" stroke="#000000" stroke-miterlimit="10" stroke-width="2"/>
<circle cx="230.389" cy="267.999" fill="#FFFFFF" r="5.049"/>
<circle cx="225.0" cy="275.0" fill="none" r="15.847" stroke="#000000" stroke-miterlimit="10" stroke-width="2"/><circle cx="275.0" cy="275.0" fill="#F39200" r="15.847" stroke="#000000" stroke-miterlimit="10" stroke-width="2"/>
<circle cx="280.389" cy="267.999" fill="#FFFFFF" r="5.049"/>
<circle cx="275.0" cy="275.0" fill="none" r="15.847" stroke="#000000" stroke-miterlimit="10" stroke-width="2"/><circle cx="325.0" cy="275.0" fill="#F39200" r="15.847" stroke="#000000" stroke-miterlimit="10" stroke-width="2"/>
<circle cx="330.389" cy="267.999" fill="#FFFFFF" r="5.049"/>
<circle cx="325.0" cy="275.0" fill="none" r="15.847" stroke="#000000" stroke-miterlimit="10" stroke-width="2"/><circle cx="375.0" cy="275.0" fill="#F39200" r="15.847" stroke="#000000" stroke-miterlimit="10" stroke-width="2"/>
<circle cx="380.389" cy="267.999" fill="#FFFFFF" r="5.049"/>
<circle cx="375.0" cy="275.0" fill="none" r="15.847" stroke="#000000" stroke-miterlimit="10" stroke-width="2"/><circle cx="425.0" cy="275.0" fill="#009CA6" r="15.847" stroke="#000000" stroke-miterlimit="10" stroke-width="2"/>
<circle cx="430.389" cy="267.999" fill="#FFFFFF" r="5.049"/>
<circle cx="425.0" cy="275.0" fill="none" r="15.847" stroke="#000000" stroke-miterlimit="10" stroke-width="2"/><circle cx="475.0" cy="275.0" fill="#009CA6" r="15.847" stroke="#000000" stroke-miterlimit="10" stroke-width="2"/>
<circle cx="480.389" cy="267.999" fill="#FFFFFF" r="5.049"/>
<circle cx="475.0" cy="275.0" fill="none" r="15.847" stroke="#000000" stroke-miterlimit="10" stroke-width="2"/><circle cx="25.0" cy="325.0" fill="#009CA6" r="15.847" stroke="#000000" stroke-miterlimit="10" stroke-width="2"/>
<circle cx="30.389" cy="317.999" fill="#FFFFFF" r="5.049"/>
<circle cx="25.0" cy="325.0" fill="none" r="15.847" stroke="#000000" stroke-miterlimit="10" stroke-width="2"/><circle cx="75.0" cy="325.0" fill="#F39200" r="15.847" stroke="#000000" stroke-miterlimit="10" stroke-width="2"/>
<circle cx="80.389" cy="317.999" fill="#FFFFFF" r="5.049"/>
<circle cx="75.0" cy="325.0" fill="none" r="15.847" stroke="#000000" stroke-miterlimit="10" stroke-width="2"/><circle cx="125.0" cy="325.0" fill="#009CA6" r="15.847" stroke="#000000" stroke-miterlimit="10" stroke-width="2"/>
<circle cx="130.389" cy="317.999" fill="#FFFFFF" r="5.049"/>
<circle cx="125.0" cy="325.0" fill="none" r="15.847" stroke="#000000" stroke-miterlimit="10" stroke-width="2"/><circle cx="175.0" cy="325.0" fill="#F39200" r="15.847" stroke="#000000" stroke-miterlimit="10" stroke-width="2"/>
<circle cx="180.389" cy="317.999" fill="#FFFFFF" r="5.049"/>
<circle cx="175.0" cy="325.0" fill="none" r="15.847" stroke="#000000" stroke-miterlimit="10" stroke-width="2"/><circle cx="225.0" cy="325.0" fill="#F39200" r="15.847" stroke="#000000" stroke-miterlimit="10" stroke-width="2"/>
<circle cx="230.389" cy="317.999" fill="#FFFFFF" r="5.049"/>
<circle cx="225.0" cy="325.0" fill="none" r="15.847" stroke="#000000" stroke-miterlimit="10" stroke-width="2"/><circle cx="275.0" cy="325.0" fill="#009CA6" r="15.847" stroke="#000000" stroke-miterlimit="10" stroke-width="2"/>
<circle cx="280.389" cy="317.999" fill="#FFFFFF" r="5.049"/>
<circle cx="275.0" cy="325.0" fill="none" r="15.847" stroke="#000000" stroke-miterlimit="10" stroke-width="2"/><circle cx="325.0" cy="325.0" fill="#009CA6" r="15.847" stroke="#000000" stroke-miterlimit="10" stroke-width="2"/>
<circle cx="330.389" cy="317.999" fill="#FFFFFF" r="5.049"/>
<circle cx="325.0" cy="325.0" fill="none" r="15.847" stroke="#000000" stroke-miterlimit="10" stroke-width="2"/><circle cx="375.0" cy="325.0" fill="#009CA6" r="15.847" stroke="#000000" stroke-miterlimit="10" stroke-width="2"/>
<circle cx="380.389" cy="317.999" fill="#FFFFFF" r="5.049"/>
<circle cx="375.0" cy="325.0" fill="none" r="15.847" stroke="#000000" stroke-miterlimit="10" stroke-width="2"/><circle cx="425.0" cy="325.0" fill="#009CA6" r="15.847" stroke="#000000" stroke-miterlimit="10" stroke-width="2"/>
<circle cx="430.389" cy="317.999" fill="#FFFFFF" r="5.049"/>
<circle cx="425.0" cy="325.0" fill="none" r="15.847" stroke="#000000" stroke-miterlimit="10" stroke-width="2"/><circle cx="475.0" cy="325.0" fill="#009CA6" r="15.847" stroke="#000000" stroke-miterlimit="10" stroke-width="2"/>
<circle cx="480.389" cy="317.999" fill="#FFFFFF" r="5.049"/>
<circle cx="475.0" cy="325.0" fill="none" r="15.847" stroke="#000000" stroke-miterlimit="10" stroke-width="2"/><circle cx="25.0" cy="375.0" fill="#F39200" r="15.847" stroke="#000000" stroke-miterlimit="10" stroke-width="2"/>
<circle cx="30.389" cy="367.999" fill="#FFFFFF" r="5.049"/>
<circle cx="25.0" cy="375.0" fill="none" r="15.847" stroke="#000000" stroke-miterlimit="10" stroke-width="2"/><circle cx="75.0" cy="375.0" fill="#F39200" r="15.847" stroke="#000000" stroke-miterlimit="10" stroke-width="2"/>
<circle cx="80.389" cy="367.999" fill="#FFFFFF" r="5.049"/>
<circle cx="75.0" cy="375.0" fill="none" r="15.847" stroke="#000000" stroke-miterlimit="10" stroke-width="2"/><circle cx="125.0" cy="375.0" fill="#009CA6" r="15.847" stroke="#000000" stroke-miterlimit="10" stroke-width="2"/>
<circle cx="130.389" cy="367.999" fill="#FFFFFF" r="5.049"/>
<circle cx="125.0" cy="375.0" fill="none" r="15.847" stroke="#000000" stroke-miterlimit="10" stroke-width="2"/><circle cx="175.0" cy="375.0" fill="#F39200" r="15.847" stroke="#000000" stroke-miterlimit="10" stroke-width="2"/>
<circle cx="180.389" cy="367.999" fill="#FFFFFF" r="5.049"/>
<circle cx="175.0" cy="375.0" fill="none" r="15.847" stroke="#000000" stroke-miterlimit="10" stroke-width="2"/><circle cx="225.0" cy="375.0" fill="#009CA6" r="15.847" stroke="#000000" stroke-miterlimit="10" stroke-width="2"/>
<circle cx="230.389" cy="367.999" fill="#FFFFFF" r="5.049"/>
<circle cx="225.0" cy="375.0" fill="none" r="15.847" stroke="#000000" stroke-miterlimit="10" stroke-width="2"/><circle cx="275.0" cy="375.0" fill="#009CA6" r="15.847" stroke="#000000" stroke-miterlimit="10" stroke-width="2"/>
<circle cx="280.389" cy="367.999" fill="#FFFFFF" r="5.049"/>
<circle cx="275.0" cy="375.0" fill="none" r="15.847" stroke="#000000" stroke-miterlimit="10" stroke-width="2"/><circle cx="325.0" cy="375.0" fill="#F39200" r="15.847" stroke="#000000" stroke-miterlimit="10" stroke-width="2"/>
<circle cx="330.389" cy="367.999" fill="#FFFFFF" r="5.049"/>
<circle cx="325.0" cy="375.0" fill="none" r="15.847" stroke="#000000" stroke-miterlimit="10" stroke-width="2"/><circle cx="375.0" cy="375.0" fill="#F39200" r="15.847" stroke="#000000" stroke-miterlimit="10" stroke-width="2"/>
<circle cx="380.389" cy="367.999" fill="#FFFFFF" r="5.049"/>
<circle cx="375.0" cy="375.0" fill="none" r="15.847" stroke="#000000" stroke-miterlimit="10" stroke-width="2"/><circle cx="425.0" cy="375.0" fill="#F39200" r="15.847" stroke="#000000" stroke-miterlimit="10" stroke-width="2"/>
<circle cx="430.389" cy="367.999" fill="#FFFFFF" r="5.049"/>
<circle cx="425.0" cy="375.0" fill="none" r="15.847" stroke="#000000" stroke-miterlimit="10" stroke-width="2"/><circle cx="475.0" cy="375.0" fill="#009CA6" r="15.847" stroke="#000000" stroke-miterlimit="10" stroke-width="2"/>
<circle cx="480.389" cy="367.999" fill="#FFFFFF" r="5.049"/>
<circle cx="475.0" cy="375.0" fill="none" r="15.847" stroke="#000000" stroke-miterlimit="10" stroke-width="2"/><circle cx="25.0" cy="425.0" fill="#F39200" r="15.847" stroke="#000000" stroke-miterlimit="10" stroke-width="2"/>
<circle cx="30.389" cy="417.999" fill="#FFFFFF" r="5.049"/>
<circle cx="25.0" cy="425.0" fill="none" r="15.847" stroke="#000000" stroke-miterlimit="10" stroke-width="2"/><circle cx="75.0" cy="425.0" fill="#009CA6" r="15.847" stroke="#000000" stroke-miterlimit="10" stroke-width="2"/>
<circle cx="80.389" cy="417.999" fill="#FFFFFF" r="5.049"/>
<circle cx="75.0" cy="425.0" fill="none" r="15.847" stroke="#000000" stroke-miterlimit="10" stroke-width="2"/><circle cx="125.0" cy="425.0" fill="#F39200" r="15.847" stroke="#000000" stroke-miterlimit="10" stroke-width="2"/>
<circle cx="130.389" cy="417.999" fill="#FFFFFF" r="5.049"/>
<circle cx="125.0" cy="425.0" fill="none" r="15.847" stroke="#000000" stroke-miterlimit="10" stroke-width="2"/><circle cx="175.0" cy="425.0" fill="#F39200" r="15.847" stroke="#000000" stroke-miterlimit="10" stroke-width="2"/>
<circle cx="180.389" cy="417.999" fill="#FFFFFF" r="5.049"/>
<circle cx="175.0" cy="425.0" fill="none" r="15.847" stroke="#000000" stroke-miterlimit="10" stroke-width="2"/><circle cx="225.0" cy="425.0" fill="#009CA6" r="15.847" stroke="#000000" stroke-miterlimit="10" stroke-width="2"/>
<circle cx="230.389" cy="417.999" fill="#FFFFFF" r="5.049"/>
<circle cx="225.0" cy="425.0" fill="none" r="15.847" stroke="#000000" stroke-miterlimit="10" stroke-width="2"/><circle cx="275.0" cy="425.0" fill="#009CA6" r="15.847" stroke="#000000" stroke-miterlimit="10" stroke-width="2"/>
<circle cx="280.389" cy="417.999" fill="#FFFFFF" r="5.049"/>
<circle cx="275.0" cy="425.0" fill="none" r="15.847" stroke="#000000" stroke-miterlimit="10" stroke-width="2"/><circle cx="325.0" cy="425.0" fill="#009CA6" r="15.847" stroke="#000000" stroke-miterlimit="10" stroke-width="2"/>
<circle cx="330.389" cy="417.999" fill="#FFFFFF" r="5.049"/>
<circle cx="325.0" cy="425.0" fill="none" r="15.847" stroke="#000000" stroke-miterlimit="10" stroke-width="2"/><circle cx="375.0" cy="425.0" fill="#009CA6" r="15.847" stroke="#000000" stroke-miterlimit="10" stroke-width="2"/>
<circle cx="380.389" cy="417.999" fill="#FFFFFF" r="5.049"/>
<circle cx="375.0" cy="425.0" fill="none" r="15.847" stroke="#000000" stroke-miterlimit="10" stroke-width="2"/><circle cx="425.0" cy="425.0" fill="#009CA6" r="15.847" stroke="#000000" stroke-miterlimit="10" stroke-width="2"/>
<circle cx="430.389" cy="417.999" fill="#FFFFFF" r="5.049"/>
<circle cx="425.0" cy="425.0" fill="none" r="15.847" stroke="#000000" stroke-miterlimit="10" stroke-width="2"/><circle cx="475.0" cy="425.0" fill="#009CA6" r="15.847" stroke="#000000" stroke-miterlimit="10" stroke-width="2"/>
<circle cx="480.389" cy="417.999" fill="#FFFFFF" r="5.049"/>
<circle cx="475.0" cy="425.0" fill="none" r="15.847" stroke="#000000" stroke-miterlimit="10" stroke-width="2"/><circle cx="25.0" cy="475.0" fill="#F39200" r="15.847" stroke="#000000" stroke-miterlimit="10" stroke-width="2"/>
<circle cx="30.389" cy="467.999" fill="#FFFFFF" r="5.049"/>
<circle cx="25.0" cy="475.0" fill="none" r="15.847" stroke="#000000" stroke-miterlimit="10" stroke-width="2"/><circle cx="75.0" cy="475.0" fill="#F39200" r="15.847" stroke="#000000" stroke-miterlimit="10" stroke-width="2"/>
<circle cx="80.389" cy="467.999" fill="#FFFFFF" r="5.049"/>
<circle cx="75.0" cy="475.0" fill="none" r="15.847" stroke="#000000" stroke-miterlimit="10" stroke-width="2"/><circle cx="125.0" cy="475.0" fill="#009CA6" r="15.847" stroke="#000000" stroke-miterlimit="10" stroke-width="2"/>
<circle cx="130.389" cy="467.999" fill="#FFFFFF" r="5.049"/>
<circle cx="125.0" cy="475.0" fill="none" r="15.847" stroke="#000000" stroke-miterlimit="10" stroke-width="2"/><circle cx="175.0" cy="475.0" fill="#F39200" r="15.847" stroke="#000000" stroke-miterlimit="10" stroke-width="2"/>
<circle cx="180.389" cy="467.999" fill="#FFFFFF" r="5.049"/>
<circle cx="175.0" cy="475.0" fill="none" r="15.847" stroke="#000000" stroke-miterlimit="10" stroke-width="2"/><circle cx="225.0" cy="475.0" fill="#F39200" r="15.847" stroke="#000000" stroke-miterlimit="10" stroke-width="2"/>
<circle cx="230.389" cy="467.999" fill="#FFFFFF" r="5.049"/>
<circle cx="225.0" cy="475.0" fill="none" r="15.847" stroke="#000000" stroke-miterlimit="10" stroke-width="2"/><circle cx="275.0" cy="475.0" fill="#F39200" r="15.847" stroke="#000000" stroke-miterlimit="10" stroke-width="2"/>
<circle cx="280.389" cy="467.999" fill="#FFFFFF" r="5.049"/>
<circle cx="275.0" cy="475.0" fill="none" r="15.847" stroke="#000000" stroke-miterlimit="10" stroke-width="2"/><circle cx="325.0" cy="475.0" fill="#F39200" r="15.847" stroke="#000000" stroke-miterlimit="10" stroke-width="2"/>
<circle cx="330.389" cy="467.999" fill="#FFFFFF" r="5.049"/>
<circle cx="325.0" cy="475.0" fill="none" r="15.847" stroke="#000000" stroke-miterlimit="10" stroke-width="2"/><circle cx="375.0" cy="475.0" fill="#009CA6" r="15.847" stroke="#000000" stroke-miterlimit="10" stroke-width="2"/>
<circle cx="380.389" cy="467.999" fill="#FFFFFF" r="5.049"/>
<circle cx="375.0" cy="475.0" fill="none" r="15.847" stroke="#000000" stroke-miterlimit="10" stroke-width="2"/><circle cx="425.0" cy="475.0" fill="#F39200" r="15.847" stroke="#000000" stroke-miterlimit="10" stroke-width="2"/>
<circle cx="430.389" cy="467.999" fill="#FFFFFF" r="5.049"/>
<circle cx="425.0" cy="475.0" fill="none" r="15.847" stroke="#000000" stroke-miterlimit="10" stroke-width="2"/><circle cx="475.0" cy="475.0" fill="#009CA6" r="15.847" stroke="#000000" stroke-miterlimit="10" stroke-width="2"/>
<circle cx="480.389" cy="467.999" fill="#FFFFFF" r="5.049"/>
<circle cx="475.0" cy="475.0" fill="none" r="15.847" stroke="#000000" stroke-miterlimit="10" stroke-width="2"/>
</svg>